<svg id="Camada_1" data-name="Camada 1" xmlns="http://www.w3.org/2000/svg" viewBox="0 0 193.95 347.59"><defs><style>.cls-1{fill:#263239;}.cls-2{fill:#c69481;}.cls-3{fill:#936458;}.cls-4{fill:#425255;}.cls-5{opacity:0.6;}.cls-6{fill:#fff;}.cls-7{fill:#455a64;}.cls-8{opacity:0.3;}.cls-9{fill:#ebebeb;}.cls-10{fill:#e0e0e0;}</style></defs><path class="cls-1" d="M270.83,290a157.65,157.65,0,0,0,.06,39c.41,3.28,1.11,6.86,3.69,8.91,3.08,2.44,7.91,1.59,10.71-1.16s3.84-6.88,3.79-10.81-1.06-7.76-1.77-11.62c-.94-5.09-1.41-10.37-3.69-15s-7-8.59-12.12-8.07" transform="translate(-198.4 -248.15)"/><path class="cls-1" d="M278.41,251.89c5.88-5.79,18.47-4.31,25,.66s10,13.16,11.39,21.29,1,16.44,1.73,24.66,2.52,16.68,7.59,23.18c2.17,2.77,4.87,5.12,6.81,8.05a18.52,18.52,0,0,1,.76,19,16.72,16.72,0,0,1-17,8c-6.82-1.29-12.06-7.1-14.67-13.53s-3-13.51-3.57-20.43a563.47,563.47,0,0,0-8.68-64.18" transform="translate(-198.4 -248.15)"/><path class="cls-2" d="M271.23,315.41l6.12-1.66h26.92l14.6,8.62s-25.52,11.49-35,6.87a26.58,26.58,0,0,1-12.66-13.06" transform="translate(-198.4 -248.15)"/><path class="cls-2" d="M304.49,266.66l.18-3.6-21.51-4.78c-6.64-.92-14.06,5.54-14.69,12.22-.7,7.43-1.26,16.52-.55,22.09,1.42,11.21,9.93,12.9,9.93,12.9l.9,24.51,24.67,1.07Z" transform="translate(-198.4 -248.15)"/><path class="cls-1" d="M271.69,278.35a1.43,1.43,0,0,0,1.33,1.49,1.38,1.38,0,0,0,1.52-1.25,1.44,1.44,0,0,0-1.34-1.49A1.37,1.37,0,0,0,271.69,278.35Z" transform="translate(-198.4 -248.15)"/><path class="cls-1" d="M270.68,274.48c.17.19,1.28-.58,2.82-.52s2.64.85,2.82.67-.09-.42-.57-.8a4,4,0,0,0-2.25-.77,3.86,3.86,0,0,0-2.25.65C270.77,274.06,270.6,274.39,270.68,274.48Z" transform="translate(-198.4 -248.15)"/><path class="cls-1" d="M286.7,279.1a1.44,1.44,0,0,0,1.34,1.49,1.37,1.37,0,0,0,1.51-1.25,1.42,1.42,0,0,0-1.33-1.48A1.37,1.37,0,0,0,286.7,279.1Z" transform="translate(-198.4 -248.15)"/><path class="cls-1" d="M285.81,275.28c.17.19,1.28-.58,2.82-.53s2.64.86,2.82.68-.09-.43-.57-.8a3.92,3.92,0,0,0-2.25-.77,3.7,3.7,0,0,0-2.25.65C285.89,274.86,285.72,275.19,285.81,275.28Z" transform="translate(-198.4 -248.15)"/><path class="cls-1" d="M279.86,287.32a10.16,10.16,0,0,0-2.48-.53c-.39-.05-.76-.14-.82-.41a1.92,1.92,0,0,1,.3-1.16l1.25-3c1.75-4.21,3-7.68,2.86-7.75s-1.73,3.29-3.47,7.51c-.43,1-.83,2-1.21,3a2.26,2.26,0,0,0-.25,1.54,1,1,0,0,0,.62.6,3.1,3.1,0,0,0,.67.11A9.87,9.87,0,0,0,279.86,287.32Z" transform="translate(-198.4 -248.15)"/><path class="cls-3" d="M277.85,305.52A29.52,29.52,0,0,0,293.3,302s-3.78,7.72-15.3,6.34Z" transform="translate(-198.4 -248.15)"/><path class="cls-3" d="M280.4,291.05a2.77,2.77,0,0,1,2.52-.95,2.5,2.5,0,0,1,1.72,1,1.62,1.62,0,0,1,.07,1.84,1.88,1.88,0,0,1-2,.45,5.75,5.75,0,0,1-1.93-1.24,1.75,1.75,0,0,1-.43-.47.53.53,0,0,1,0-.57" transform="translate(-198.4 -248.15)"/><path class="cls-1" d="M284.36,288.53c-.25,0-.3,1.65-1.77,2.79s-3.24.9-3.26,1.13.39.34,1.14.38a4.15,4.15,0,0,0,2.72-.85,3.66,3.66,0,0,0,1.38-2.34C284.65,288.94,284.48,288.52,284.36,288.53Z" transform="translate(-198.4 -248.15)"/><path class="cls-1" d="M285.6,270.63c.14.42,1.68.27,3.48.54s3.24.82,3.5.45c.11-.18-.13-.58-.71-1a6.08,6.08,0,0,0-5.32-.76C285.88,270.11,285.54,270.43,285.6,270.63Z" transform="translate(-198.4 -248.15)"/><path class="cls-1" d="M270.89,269.2c.26.35,1.33,0,2.61.05s2.35.31,2.61-.05c.11-.18-.05-.53-.51-.88a3.77,3.77,0,0,0-4.2,0C270.94,268.67,270.78,269,270.89,269.2Z" transform="translate(-198.4 -248.15)"/><path class="cls-4" d="M304.16,284.21c1.95-1.29,2.8-12.42,2.71-17s-2.52-8.64-5.74-11.88c-3.51-3.52-7.56-4.75-12.5-5.28-2.76-.3-5.73-.66-8.39.1s-4.16,1.7-5.46,4.15c-.72,1.36-.91,3.3.34,4.19s2.81.17,4.22-.23c3.75-1.07,7.85.14,11.08,2.3s5.77,5.21,8.25,8.21c3.23,3.91,4.77,10.41,5.49,15.42" transform="translate(-198.4 -248.15)"/><path class="cls-1" d="M266.49,258.19c1.43-4.54,10.28-10.17,19.64-6,4.3.15,8.48.86,13.06,5,8.27,7.55,5.1,26,5.1,26a41.79,41.79,0,0,1-13.19-10.65c-5.31-6.4-8.22-11.41-9.26-14.45h0c-8.63,2.08-11.9,9.63-13.42,12.9C266.47,268.85,264,266.2,266.49,258.19Z" transform="translate(-198.4 -248.15)"/><path class="cls-2" d="M302.46,282.13c.18-.09,7.36-2.51,7.43,4.91s-7.4,6-7.42,5.76S302.46,282.13,302.46,282.13Z" transform="translate(-198.4 -248.15)"/><path class="cls-3" d="M304.72,290s.13.09.35.19a1.3,1.3,0,0,0,1,0,3.21,3.21,0,0,0,1.46-2.89,4.43,4.43,0,0,0-.38-1.85,1.5,1.5,0,0,0-1-1,.65.65,0,0,0-.76.36c-.1.21-.05.36-.09.37s-.16-.12-.11-.43a.87.87,0,0,1,.29-.47,1,1,0,0,1,.71-.19,1.8,1.8,0,0,1,1.37,1.14,4.41,4.41,0,0,1,.47,2.06c0,1.5-.79,2.91-1.86,3.23a1.38,1.38,0,0,1-1.19-.19C304.73,290.14,304.69,290,304.72,290Z" transform="translate(-198.4 -248.15)"/><path class="cls-2" d="M222.49,447.89l-15,1.66-9.13,5.73s-.18,1.86,2.42,1.56l5.14-2.18-4.07,4.47s1,1.79,3.22.53a12.68,12.68,0,0,0,3.63-3.13l9-.63s-6.81,6.54-5.55,8.24,2.06,1.34,3,.72,1.52-2.78,3.76-3.49,5.93-2.81,9.94-4.71c3.44-1.63,6.94-13.3,6.94-13.3l-11.49-2.24Z" transform="translate(-198.4 -248.15)"/><path class="cls-3" d="M216.54,451.71c0,.19-3.78.92-8.51,1.63l-.13,0,.2-.1c-3.3,3.38-6.07,6-6.21,5.87s2.41-3,5.71-6.35l.09-.09h.11l.12,0C212.65,452,216.51,451.52,216.54,451.71Z" transform="translate(-198.4 -248.15)"/><polygon class="cls-2" points="113.91 293.93 111.12 269.75 88.7 276.03 94.36 299.22 113.91 293.93"/><path class="cls-4" d="M312.56,542l3.79,28.19,9.42,21.43a2.91,2.91,0,0,1-1.67,3.91h0a2.91,2.91,0,0,1-2.65-.34c-4.93-3.44-23-16.16-23.19-18.24-.19-2.41-6-29.46-6-29.46Z" transform="translate(-198.4 -248.15)"/><g class="cls-5"><path class="cls-6" d="M324.1,595.54,298,575.06l.19,1.2a4.39,4.39,0,0,0,1.47,2.64c2.11,1.82,8.06,6.7,21.75,16.31a2.89,2.89,0,0,0,2.73.33Z" transform="translate(-198.4 -248.15)"/></g><g class="cls-5"><path class="cls-6" d="M302.29,565.09a1.77,1.77,0,0,1,.84,2.2,1.69,1.69,0,0,1-2.17.85,1.86,1.86,0,0,1-.88-2.33,1.76,1.76,0,0,1,2.36-.63" transform="translate(-198.4 -248.15)"/></g><path class="cls-1" d="M315.74,584.28a8.71,8.71,0,0,1,2.12-2.57c1.51-1.1,3.13-1,3.13-1.13s-.37-.24-1.05-.23a4.51,4.51,0,0,0-2.44.85,4.44,4.44,0,0,0-1.62,2C315.64,583.85,315.67,584.27,315.74,584.28Z" transform="translate(-198.4 -248.15)"/><path class="cls-1" d="M318.33,587.73c.16.1.91-1,2.3-1.6a22.51,22.51,0,0,1,2.69-.79c.06-.16-1.39-.54-3,.22S318.18,587.67,318.33,587.73Z" transform="translate(-198.4 -248.15)"/><path class="cls-1" d="M311.25,580.05c.16.11,1.31-1.52,3.38-2.71s4-1.44,4-1.63-2.13-.22-4.33,1.09S311.11,580,311.25,580.05Z" transform="translate(-198.4 -248.15)"/><path class="cls-1" d="M309.38,571.58c.11.15,1.56-.74,3.56-1.13s3.69-.16,3.72-.35-1.69-.71-3.84-.26A5.63,5.63,0,0,0,309.38,571.58Z" transform="translate(-198.4 -248.15)"/><path class="cls-1" d="M308.06,563.33c.11.15,1.53-1,3.68-1.27s3.79.52,3.87.35-.33-.38-1-.65a6.32,6.32,0,0,0-2.92-.32,6.09,6.09,0,0,0-2.75,1C308.29,562.89,308,563.28,308.06,563.33Z" transform="translate(-198.4 -248.15)"/><path class="cls-1" d="M311.44,560.5a2.56,2.56,0,0,0-.13-1.07,7.5,7.5,0,0,0-1.29-2.65,3.19,3.19,0,0,0-1.65-1.34,1.17,1.17,0,0,0-1.26.46,1.92,1.92,0,0,0-.24,1.34,4.11,4.11,0,0,0,4.16,3.2,4.76,4.76,0,0,0,4.24-3.2,1.63,1.63,0,0,0-.14-1.37,1.15,1.15,0,0,0-1.28-.42,4.14,4.14,0,0,0-1.7,1.26,8.47,8.47,0,0,0-1.57,2.48,2.64,2.64,0,0,0-.28,1,13.28,13.28,0,0,1,2.17-3.22A3.88,3.88,0,0,1,314,556a.62.62,0,0,1,.7.23,1.14,1.14,0,0,1,0,.9,4.28,4.28,0,0,1-3.71,2.74,3.58,3.58,0,0,1-3.57-2.67,1.32,1.32,0,0,1,.13-.94.64.64,0,0,1,.69-.27,3.08,3.08,0,0,1,1.42,1.11A11,11,0,0,1,311.44,560.5Z" transform="translate(-198.4 -248.15)"/><path class="cls-1" d="M260.44,403.59l-.4,6.1s-5.16,9.75-5.63,18.49c-.27,5.07-.38,12.55-.43,17.93a22.75,22.75,0,0,0,3.45,12.25l10.33,16.55-1.42,18.69,18.71,37.46,27.69-7-3.28-69.15-11.15-36.52L296.19,401Z" transform="translate(-198.4 -248.15)"/><path class="cls-1" d="M316.23,399.79l.49,7.95s22.24-47.36,52.58-53.2c19.71-3.8,27.48,17.69,20.56,34.74-4.16,10.28-21.44,29.94-21.46,30.39-.55,10.55-11.29,9-11.29,9s-13.51,21.26-17.51,25.43c-2.73,2.85-31.64,1.83-31.64,1.83l-9.09-18.79-3.66-36Z" transform="translate(-198.4 -248.15)"/><path class="cls-7" d="M277.78,449.44a9.85,9.85,0,0,1-.52,1.71l-1.57,4.58c-1.31,3.87-3,9.25-4.68,15.27s-2.88,11.53-3.71,15.53c-.39,1.91-.71,3.51-1,4.75a9.17,9.17,0,0,1-.42,1.73,10.07,10.07,0,0,1,.17-1.78c.15-1.13.41-2.77.77-4.79.72-4,1.89-9.57,3.54-15.61s3.44-11.41,4.87-15.25c.71-1.92,1.32-3.47,1.77-4.52A9.49,9.49,0,0,1,277.78,449.44Z" transform="translate(-198.4 -248.15)"/><path class="cls-7" d="M270.88,442a38.46,38.46,0,0,1-.44,4.5c-.32,2.77-.69,6.61-.9,10.86s-.21,8.11-.16,10.9a38.26,38.26,0,0,1,0,4.52,4.71,4.71,0,0,1-.2-1.2c-.09-.78-.18-1.91-.26-3.31a108.53,108.53,0,0,1,0-10.94A107.38,107.38,0,0,1,270,446.42c.22-1.38.42-2.5.58-3.26A4.88,4.88,0,0,1,270.88,442Z" transform="translate(-198.4 -248.15)"/><path class="cls-7" d="M312.74,522.6a1.38,1.38,0,0,1-.05-.34c0-.26-.05-.58-.08-1-.06-.92-.14-2.19-.24-3.8-.19-3.35-.46-8.12-.78-14-.6-11.86-1.43-28.15-2.34-46.15-.29-4.5-.18-8.94-1.14-13a36.6,36.6,0,0,0-4.56-11.21,35.9,35.9,0,0,0-7.15-8.32,34.65,34.65,0,0,0-8.09-5.11,36.86,36.86,0,0,0-13.45-3.3c-1.64-.07-2.93,0-3.79,0l-1,0a1.48,1.48,0,0,1-.34,0,26.67,26.67,0,0,1,5.13-.3,36.11,36.11,0,0,1,21.88,8.25,36.29,36.29,0,0,1,7.31,8.41,36.83,36.83,0,0,1,4.67,11.4c1,4.21.88,8.67,1.17,13.15.84,18,1.59,34.3,2.14,46.16.24,5.87.44,10.63.58,14,.05,1.61.09,2.89.12,3.81,0,.4,0,.73,0,1A1.3,1.3,0,0,1,312.74,522.6Z" transform="translate(-198.4 -248.15)"/><path class="cls-7" d="M300.07,424.2c-.14-.12,2.51-3.55,5.92-7.67s6.28-7.37,6.42-7.26-2.51,3.55-5.92,7.67S300.21,424.31,300.07,424.2Z" transform="translate(-198.4 -248.15)"/><path class="cls-7" d="M344.37,396.13a124.12,124.12,0,0,1,8.62-12.3c2.39-3,4-4.7,4.11-4.61s-1.34,2-3.59,5.07-5.28,7.42-8.34,12.41-5.94,9.56-6.47,13.38a12.65,12.65,0,0,0,.58,6.11,3.3,3.3,0,0,1-.81-1.5A10.76,10.76,0,0,1,338,410a19.67,19.67,0,0,1,2.21-6.6" transform="translate(-198.4 -248.15)"/><path class="cls-7" d="M359.8,373.09c.15.13-.93,1.48-1.6,3.45s-.69,3.69-.89,3.7-.47-1.81.28-3.92S359.7,373,359.8,373.09Z" transform="translate(-198.4 -248.15)"/><path class="cls-7" d="M297.14,473.31c-.16-.08,1.23-3.33,3.11-7.26s3.53-7.05,3.7-7-1.24,3.32-3.11,7.25S297.3,473.38,297.14,473.31Z" transform="translate(-198.4 -248.15)"/><path class="cls-7" d="M281.47,462.56c.16-.06.88,1.45,1.58,3.38s1.15,3.54,1,3.6-.88-1.45-1.59-3.38S281.3,462.62,281.47,462.56Z" transform="translate(-198.4 -248.15)"/><path class="cls-4" d="M245.5,336.21c1.6-13.84,10.47-16.94,10.47-16.94l1.3,81.77-10.19,42.23a9.47,9.47,0,0,1-12,6.83l-20.65-6.28S243.9,350.06,245.5,336.21Z" transform="translate(-198.4 -248.15)"/><path class="cls-4" d="M331.71,329.11s5.11,11.63,5.11,17.75,6.13,45.77,0,54.17-18.14,8.07-21.56,7.79c-4.67-.39-26.45-40.67-25.56-41.19L302,365s8.57.53,12.67,4,8.09-.53,8.09-.53l8.64-37.17" transform="translate(-198.4 -248.15)"/><path class="cls-4" d="M314.65,319.27s14,4.76,17.06,9.84-14.58,70.42-14.58,70.42l-56.69,4.06s-4.47-.81-5.69-4.88S256,319.27,256,319.27l15.77-5.58s6.79,7,11.66,8.43S314.65,319.27,314.65,319.27Z" transform="translate(-198.4 -248.15)"/><path class="cls-1" d="M259.52,337.22a2.09,2.09,0,0,1,.07.67c0,.52,0,1.16.06,1.93,0,1.68,0,4.11,0,7.11a230.77,230.77,0,0,1-1.75,23.37c-.56,4.54-1.24,8.86-1.94,12.76s-1.47,7.39-1.38,10.37a14.45,14.45,0,0,0,1.62,6.75,20.65,20.65,0,0,0,1.45,2.13s-.19-.13-.5-.45a9.25,9.25,0,0,1-1.17-1.56,14.06,14.06,0,0,1-1.86-6.86c-.14-3,.57-6.6,1.25-10.48s1.32-8.21,1.89-12.74c1.14-9.07,1.69-17.33,1.93-23.31.1-2.92.18-5.32.24-7.09,0-.78.05-1.41.07-1.93A2.94,2.94,0,0,1,259.52,337.22Z" transform="translate(-198.4 -248.15)"/><path class="cls-1" d="M314.62,372.23a25.5,25.5,0,0,0-1.95-2.38A10.41,10.41,0,0,0,310,368a13.2,13.2,0,0,0-3.89-1,15.92,15.92,0,0,0-7.3.42,6.51,6.51,0,0,0-1.91,1.08c-.36.37-.58.58-.62.56s.12-.29.45-.74a5.55,5.55,0,0,1,1.91-1.33,14.86,14.86,0,0,1,7.56-.64,13.13,13.13,0,0,1,4.06,1.14,9.87,9.87,0,0,1,2.76,2.08,8.55,8.55,0,0,1,1.33,1.9A1.81,1.81,0,0,1,314.62,372.23Z" transform="translate(-198.4 -248.15)"/><path class="cls-1" d="M299.89,384.72c.1,0,.55,1.53,1.59,3.93a71.06,71.06,0,0,0,4.79,9A71.8,71.8,0,0,0,312.2,406a20.27,20.27,0,0,0,2.13,2.21,7,7,0,0,0,.93.63s-.46,0-1.08-.43a14.33,14.33,0,0,1-2.32-2.11,55.4,55.4,0,0,1-6.14-8.27,54.8,54.8,0,0,1-4.66-9.19,28,28,0,0,1-1-3A3.66,3.66,0,0,1,299.89,384.72Z" transform="translate(-198.4 -248.15)"/><path class="cls-1" d="M321.49,335.6c-.14-.09,1.15-2.13,3.28-4.2s4.18-3.32,4.28-3.18-1.76,1.61-3.83,3.64S321.64,335.72,321.49,335.6Z" transform="translate(-198.4 -248.15)"/><path class="cls-1" d="M254,321.39c.08-.14,2.37,1.28,4.44,3.82s3,5.07,2.83,5.12-1.32-2.25-3.34-4.71S253.91,321.55,254,321.39Z" transform="translate(-198.4 -248.15)"/><path class="cls-1" d="M306.56,393.29a15.9,15.9,0,0,1-2-3.21,46,46,0,0,1-5-17.39,16.06,16.06,0,0,1,0-3.76,32.36,32.36,0,0,1,.48,3.72,61.23,61.23,0,0,0,1.8,8.81,59.67,59.67,0,0,0,3.14,8.42A33.25,33.25,0,0,1,306.56,393.29Z" transform="translate(-198.4 -248.15)"/><path class="cls-1" d="M327.61,376.32a18.17,18.17,0,0,1-2.1-2,49.79,49.79,0,0,0-5.32-4.57,18,18,0,0,0-3.23-2,4.18,4.18,0,0,0-2.91-.31,3.08,3.08,0,0,0-1.63,1.12c-.27.4-.33.68-.38.67s-.07-.31.16-.79a3.09,3.09,0,0,1,1.71-1.43,4.49,4.49,0,0,1,3.28.18,17.07,17.07,0,0,1,3.38,2.07,34.6,34.6,0,0,1,5.27,4.78A10.1,10.1,0,0,1,327.61,376.32Z" transform="translate(-198.4 -248.15)"/><g class="cls-8"><path d="M301.2,389.27c-2.93.75-5.9-.95-8.92-1.11-2.74-.14-5.36,1-8,1.71a27.55,27.55,0,0,1-17.43-1.05,4.63,4.63,0,0,1-1.76-1.09,2.2,2.2,0,0,1-.34-2.2c5.1,0,10.18.17,15.27.11a5.69,5.69,0,0,0,3-.59,1.25,1.25,0,0,0,.54-.55s3.05-.1,4.13-.11c2.46,0,5.29.19,7.74.18,1.07,0,4.51.15,4.43.15" transform="translate(-198.4 -248.15)"/></g><g class="cls-8"><path d="M318,367.46a23.61,23.61,0,0,1,11.65,5.74,3.84,3.84,0,0,1,.93,1.12,1.43,1.43,0,0,1,0,1.39,1.46,1.46,0,0,1-1.62.46,4.25,4.25,0,0,1-1.5-.95L317.74,367" transform="translate(-198.4 -248.15)"/></g><path class="cls-1" d="M320.7,339.42a24.33,24.33,0,0,1,.09,4.14c-.06,2.56-.23,6.1-.6,10s-.86,7.4-1.29,9.92a24.28,24.28,0,0,1-.86,4.05,30.47,30.47,0,0,1,.41-4.12c.31-2.53.72-6,1.09-9.91s.62-7.39.79-9.94A30.53,30.53,0,0,1,320.7,339.42Z" transform="translate(-198.4 -248.15)"/><polygon class="cls-7" points="78.14 119.29 72.21 106.51 51.82 105.23 51.1 106.42 66.56 136.19 85.19 136.35 78.14 119.29"/><path class="cls-7" d="M275.82,368.63l-5.93-12.79-20.39-1.28,14.74,31,16.53.12a4,4,0,0,0,2.67-1l.15-.14Z" transform="translate(-198.4 -248.15)"/><path class="cls-9" d="M260.35,360.58a1,1,0,1,0-.07-1.45A1,1,0,0,0,260.35,360.58Z" transform="translate(-198.4 -248.15)"/><path class="cls-2" d="M299.71,369.28l-7.88.46a11.19,11.19,0,0,0-8.45-4.71l-2.82-.18-2.05,2s-13.83-.26-14.45,1.41l0,.55,0,.32,11.75,1.53s-10-.66-10.64-.68-2.79-.34-2.82.84c0,1,1.07,1.8,2.79,2.17.71.15,9.35,1.45,9.35,1.45l-9.56-.69c-1.07-.08-1,1.65-.42,1.91S277,380.24,277,380.24a7.37,7.37,0,0,1-3.82,1c-1.67-.23-4.42-2.57-5.08-1.59s-.59,1.6-.24,1.86a43.7,43.7,0,0,0,5.48,3c1.3.44,14.65-.23,14.65-.23l13.95.48Z" transform="translate(-198.4 -248.15)"/><path class="cls-3" d="M273.8,366.76a41.11,41.11,0,0,1,4.85.13,36.33,36.33,0,0,1,4.83.43,38.68,38.68,0,0,1-4.85-.13A36.81,36.81,0,0,1,273.8,366.76Z" transform="translate(-198.4 -248.15)"/><path class="cls-1" d="M274.69,366.19s-.14-.26-.37-.75l-1-2.13c-.86-1.92-2-4.46-3.32-7.39l.08.06-4.68-.3-11.26-.75-3.41-.25-.93-.08-.32,0h.32l.93.05,3.42.18,11.27.7,4.67.3h.05l0,.05,3.26,7.41c.36.86.67,1.57.92,2.15S274.69,366.19,274.69,366.19Z" transform="translate(-198.4 -248.15)"/><path class="cls-4" d="M353.45,434.49l-13.58,17.07s13.73,18.25,11.52,21.65l-35-23.85,20.07-27.48Z" transform="translate(-198.4 -248.15)"/><g class="cls-5"><path class="cls-6" d="M330.43,442.31a1.73,1.73,0,0,0-2.13.88,1.65,1.65,0,0,0,.85,2.12,1.81,1.81,0,0,0,2.25-.94,1.73,1.73,0,0,0-1.13-2.11" transform="translate(-198.4 -248.15)"/></g><g class="cls-5"><path class="cls-6" d="M316.41,449.36l2-2.77,33,24.21a2.92,2.92,0,0,1,0,2.79Z" transform="translate(-198.4 -248.15)"/></g><path class="cls-1" d="M340.55,451.8c-.12.16-1-.38-2.22-.45s-2.17.31-2.27.13.85-1,2.32-.84S340.7,451.67,340.55,451.8Z" transform="translate(-198.4 -248.15)"/><path class="cls-1" d="M343,455.91c-.08.19-1-.06-2.1.23s-1.79.91-1.95.78.42-1.15,1.78-1.48S343.15,455.75,343,455.91Z" transform="translate(-198.4 -248.15)"/><path class="cls-1" d="M341.91,461.69c-.18-.08.2-1.08,1.3-1.68s2.15-.38,2.12-.19-.88.32-1.77.82S342.09,461.79,341.91,461.69Z" transform="translate(-198.4 -248.15)"/><path class="cls-1" d="M343.22,447.56c-.18.1-.78-.69-1.76-1.32s-1.94-.87-1.92-1.08,1.16-.28,2.31.48S343.4,447.49,343.22,447.56Z" transform="translate(-198.4 -248.15)"/><path class="cls-1" d="M345.89,444.07c0,.07-.78-.32-1.7-1.27a10,10,0,0,1-1.38-1.87,9.5,9.5,0,0,1-.59-1.24,2.58,2.58,0,0,1-.22-.78.89.89,0,0,1,.58-.94,1.14,1.14,0,0,1,1,.16,2.53,2.53,0,0,1,.57.56,8.06,8.06,0,0,1,.79,1.14,7.36,7.36,0,0,1,.81,2.2,3.52,3.52,0,0,1,0,2.12c-.11,0-.11-.8-.47-2a8.22,8.22,0,0,0-.89-2,7.78,7.78,0,0,0-.76-1c-.29-.36-.59-.59-.8-.49s-.1.05-.11.21a2.41,2.41,0,0,0,.17.58,9.77,9.77,0,0,0,.52,1.18,11.4,11.4,0,0,0,1.18,1.85C345.35,443.46,346,444,345.89,444.07Z" transform="translate(-198.4 -248.15)"/><path class="cls-1" d="M345.5,444.15c-.08,0,0-.86.77-2a6.67,6.67,0,0,1,1.61-1.7,7.78,7.78,0,0,1,1.2-.72,1.75,1.75,0,0,1,1.72-.05,1,1,0,0,1,.36,1,2.73,2.73,0,0,1-.28.75,4.58,4.58,0,0,1-.85,1.15,4.86,4.86,0,0,1-2,1.23,2.77,2.77,0,0,1-2.13,0,19.74,19.74,0,0,0,2-.49,4.77,4.77,0,0,0,1.72-1.21,4.32,4.32,0,0,0,.7-1c.21-.4.29-.79.13-.85a1.19,1.19,0,0,0-1,.12,6.58,6.58,0,0,0-1.11.61,7.8,7.8,0,0,0-1.58,1.46C345.89,443.43,345.61,444.19,345.5,444.15Z" transform="translate(-198.4 -248.15)"/><polygon class="cls-2" points="158.71 180.51 154.43 185.87 138.47 174.03 141.38 169.58 158.71 180.51"/><path class="cls-10" d="M276.09,299.65" transform="translate(-198.4 -248.15)"/></svg>